<svg width="667" height="421" viewBox="0 0 667 421" fill="none" xmlns="http://www.w3.org/2000/svg">
<path d="M607.551 105.116H604.741L606.124 102.7L546.917 0H183.242L242.449 102.879L243.877 105.295L303.084 207.995L304.467 210.411L363.674 313.29L365.102 315.705L424.309 418.585L425.692 421H544.106L545.489 418.585L604.741 315.705L606.124 313.29L665.331 210.411L666.669 207.995L607.551 105.116ZM544.106 210.5L484.899 313.379L486.282 315.795H483.739L485.122 313.379L425.737 210.5H422.97L424.353 208.129L365.057 105.116H362.291L363.674 102.745L365.057 105.116H483.739L485.122 102.745L486.505 105.116L545.712 207.995L547.14 210.411L544.106 210.5Z" fill="url(#paint0_linear_333_36)"/>
<path d="M363.674 313.335L362.291 315.75H243.877L242.494 313.335L241.066 315.75H122.608L121.225 313.335L62.0178 210.5L60.6347 208.129L1.38313 105.25L0 102.879L59.2516 0H183.243L242.45 102.835L241.066 105.25H122.653L121.269 102.879L119.886 105.25H122.653L181.859 208.085L180.432 210.5H304.467L363.674 313.335Z" fill="url(#paint1_linear_333_36)"/>
<defs>
<linearGradient id="paint0_linear_333_36" x1="277.906" y1="-182.224" x2="837.586" y2="194.025" gradientUnits="userSpaceOnUse">
<stop offset="0.0195289" stop-color="#DD0DFF"/>
<stop offset="1" stop-color="#1929F2"/>
</linearGradient>
<linearGradient id="paint1_linear_333_36" x1="71.2138" y1="-136.668" x2="491.454" y2="146.703" gradientUnits="userSpaceOnUse">
<stop offset="0.0195289" stop-color="#DD0DFF"/>
<stop offset="1" stop-color="#1929F2"/>
</linearGradient>
</defs>
</svg>
